<svg width="216" height="143" viewBox="0 0 216 143" fill="none" xmlns="http://www.w3.org/2000/svg">
<path d="M5.71398 41.3344C13.4944 38.8314 21.3583 37.58 29.3054 37.58C37.2526 37.58 43.3658 38.9149 47.6451 41.5847C48.6454 44.5882 49.1456 47.4527 49.1456 50.1781C49.1456 56.5746 46.5058 61.942 41.2262 66.2804C35.9466 70.5632 29.1387 73.6502 20.8025 75.5413L18.8018 94.23L10.4656 95.0643L5.71398 41.3344ZM33.0567 52.5976C33.0567 48.3148 31.3061 45.1166 27.8049 43.003C26.8046 43.003 25.5819 43.1977 24.137 43.587L21.3861 69.868C24.9984 67.8656 27.8327 65.2792 29.889 62.1088C32.0008 58.9384 33.0567 55.768 33.0567 52.5976Z" fill="white"/>
<path d="M60.0582 95.1477L55.8068 53.8491L73.6462 51.0959L68.3111 94.3968L60.0582 95.1477ZM58.391 44.5882C56.8905 43.0308 56.1402 41.1953 56.1402 39.0817C56.1402 36.9681 56.8905 35.1605 58.391 33.6587C59.9471 32.1013 61.7811 31.3226 63.8929 31.3226C66.0047 31.3226 67.8109 32.1013 69.3114 33.6587C70.8675 35.1605 71.6456 36.9681 71.6456 39.0817C71.6456 41.1953 70.8675 43.0308 69.3114 44.5882C67.8109 46.09 66.0047 46.8409 63.8929 46.8409C61.7811 46.8409 59.9471 46.09 58.391 44.5882Z" fill="#FFBD48"/>
<path d="M85.7767 51.4296L119.622 52.1805L120.705 60.8574L92.7791 88.4732L118.621 85.3862L119.122 93.8963L83.1925 94.6471L83.4426 89.5578L102.199 59.0219L86.0268 57.3532L85.7767 51.4296Z" fill="#FF3536"/>
<path d="M132.424 51.4296L166.269 52.1805L167.352 60.8574L139.426 88.4732L165.268 85.3862L165.768 93.8963L129.839 94.6471L130.09 89.5578L148.846 59.0219L132.674 57.3532L132.424 51.4296Z" fill="#60BB28"/>
<path d="M183.989 95.8152C183.044 95.8152 182.35 95.7874 181.905 95.7317C180.015 94.4525 178.487 92.5614 177.32 90.0584C176.209 87.4998 175.653 84.8578 175.653 82.1324C175.653 78.5727 176.987 75.9863 179.654 74.3733C182.377 72.7603 187.351 71.9538 194.576 71.9538C197.244 71.9538 200.022 72.1484 202.912 72.5378L202.745 70.7023C202.523 68.4774 201.467 66.7254 199.578 65.4461C197.688 64.1112 195.271 63.4437 192.325 63.4437C189.38 63.4437 186.434 64.3615 183.489 66.197L179.821 54.0994C184.6 52.1527 190.047 51.1793 196.16 51.1793C202.273 51.1793 207.108 52.5698 210.665 55.3509C214.222 58.0763 216 62.3591 216 68.1993C216 69.5342 215.944 70.591 215.833 71.3697L213.499 94.3968L205.246 95.1477L203.996 83.0502H203.329C201.439 87.0549 198.827 90.1975 195.493 92.4779C192.158 94.7028 188.324 95.8152 183.989 95.8152ZM203.246 76.0419L198.827 75.9585C195.159 75.9585 192.158 76.1532 189.824 76.5425C189.046 78.0999 188.657 79.4904 188.657 80.7141C188.657 81.9377 188.824 83.1058 189.157 84.2182C189.491 85.3306 189.852 86.0815 190.241 86.4708C196.91 85.4141 201.245 81.9377 203.246 76.0419Z" fill="white"/>
<path d="M81.167 122.624C81.167 123.514 80.9405 124.364 80.4876 125.174C80.0508 125.983 79.4522 126.696 78.6919 127.311C77.9477 127.91 77.066 128.388 76.0468 128.744C75.0438 129.1 73.9761 129.278 72.8437 129.278C72.4392 129.278 72.1157 129.23 71.873 129.132C71.6465 129.019 71.3877 128.809 71.0965 128.501C70.2876 130.266 69.6243 131.893 69.1066 133.383C68.6051 134.856 68.2088 136.289 67.9176 137.681C67.3028 137.536 66.8013 137.276 66.4131 136.904C66.0248 136.548 65.6689 136.095 65.3454 135.544C65.5071 135.236 65.7013 134.832 65.9278 134.33C66.1542 133.828 66.4293 133.213 66.7528 132.484C67.0764 131.739 67.4484 130.857 67.8691 129.837C68.3059 128.8 68.8155 127.594 69.3978 126.218C69.6567 125.587 69.8832 125.036 70.0773 124.566C70.2714 124.097 70.4413 123.66 70.5869 123.255C70.7325 122.834 70.8619 122.421 70.9752 122.016C71.1046 121.612 71.234 121.166 71.3634 120.681C70.6031 120.924 69.8993 121.207 69.2522 121.531C68.6213 121.854 68.0956 122.195 67.6749 122.551C67.5293 122.454 67.3756 122.308 67.2139 122.114C67.0683 121.919 66.9308 121.709 66.8013 121.482C66.6719 121.239 66.5587 120.996 66.4616 120.753C66.3645 120.511 66.3079 120.292 66.2918 120.098C66.7609 119.774 67.3433 119.474 68.0389 119.199C68.7346 118.924 69.4787 118.689 70.2714 118.495C71.0641 118.284 71.8811 118.122 72.7223 118.009C73.5798 117.896 74.3967 117.839 75.1732 117.839C76.0954 117.839 76.9285 117.961 77.6727 118.203C78.4168 118.43 79.0478 118.754 79.5654 119.175C80.0831 119.596 80.4795 120.098 80.7545 120.681C81.0295 121.264 81.167 121.911 81.167 122.624ZM76.8476 119.709C76.2329 119.709 75.6019 119.758 74.9548 119.855L75.246 120.292C75.0843 120.503 74.882 120.818 74.6394 121.239C74.3967 121.66 74.1298 122.17 73.8386 122.769C73.5474 123.352 73.2238 124.008 72.8679 124.737C72.5282 125.465 72.1642 126.234 71.7759 127.044C73.0378 127.044 74.1864 126.93 75.2218 126.704C76.2571 126.461 77.1388 126.137 77.8668 125.732C78.611 125.311 79.1853 124.826 79.5897 124.275C80.0103 123.725 80.2206 123.134 80.2206 122.502C80.2206 121.66 79.9375 120.988 79.3713 120.486C78.8051 119.968 77.9639 119.709 76.8476 119.709Z" fill="white"/>
<path d="M88.3984 125.659C88.3337 126.663 88.1557 127.529 87.8645 128.258C87.5733 128.97 87.1527 129.602 86.6027 130.152C86.0688 130.687 85.4136 131.172 84.6371 131.61C83.8606 132.047 82.9547 132.468 81.9193 132.872C81.9193 132.97 81.9112 133.075 81.895 133.188C81.895 133.285 81.895 133.391 81.895 133.504C81.895 133.714 81.9112 133.933 81.9436 134.16C81.9759 134.386 82.0325 134.597 82.1134 134.791C82.1943 134.985 82.3075 135.147 82.4531 135.277C82.5987 135.39 82.7848 135.447 83.0113 135.447C83.4481 135.447 83.8768 135.35 84.2974 135.155C84.718 134.961 85.1143 134.726 85.4864 134.451C85.8747 134.16 86.2306 133.852 86.5542 133.528C86.8939 133.188 87.1932 132.881 87.452 132.605C87.6138 132.751 87.7513 132.889 87.8645 133.018C87.1366 133.99 86.3358 134.799 85.4622 135.447C84.6048 136.078 83.7878 136.483 83.0113 136.661C81.895 136.532 81.0214 136.127 80.3905 135.447C79.7758 134.751 79.4684 133.917 79.4684 132.945C79.4684 132.282 79.5574 131.61 79.7353 130.93C79.9294 130.233 80.1883 129.57 80.5118 128.938C80.8516 128.29 81.2398 127.683 81.6766 127.117C82.1296 126.55 82.6068 126.056 83.1083 125.635C83.626 125.214 84.1518 124.882 84.6856 124.639C85.2357 124.396 85.7776 124.275 86.3115 124.275C87.0557 124.372 87.7513 124.834 88.3984 125.659ZM86.724 126.461C86.2872 126.526 85.8343 126.704 85.3651 126.995C84.896 127.287 84.4511 127.675 84.0305 128.161C83.626 128.647 83.2539 129.213 82.9142 129.861C82.5745 130.509 82.3075 131.205 82.1134 131.95C83.4076 131.302 84.4834 130.509 85.3408 129.57C86.1982 128.614 86.6593 127.578 86.724 126.461Z" fill="white"/>
<path d="M94.8119 124.372C95.1355 124.372 95.5076 124.469 95.9282 124.664C96.3488 124.858 96.7209 125.109 97.0444 125.417C96.9635 124.769 96.8584 124.162 96.729 123.595C96.6157 123.012 96.4378 122.413 96.1951 121.798C95.9686 121.183 95.6612 120.511 95.273 119.782C94.8847 119.053 94.3994 118.22 93.817 117.281C93.8655 117.135 93.9707 116.965 94.1325 116.771C94.3104 116.576 94.5045 116.398 94.7149 116.236C94.9413 116.058 95.1678 115.904 95.3943 115.775C95.637 115.645 95.8635 115.564 96.0738 115.532C96.5267 116.034 96.9555 116.665 97.3599 117.426C97.7643 118.171 98.1202 118.981 98.4276 119.855C98.735 120.713 98.9696 121.604 99.1313 122.526C99.3093 123.449 99.3983 124.332 99.3983 125.174C99.3983 126.016 99.3012 126.882 99.1071 127.772C98.9291 128.663 98.6703 129.537 98.3305 130.395C98.007 131.237 97.6268 132.039 97.19 132.8C96.7532 133.561 96.276 134.241 95.7583 134.84C95.2568 135.439 94.731 135.925 94.181 136.297C93.631 136.685 93.0809 136.928 92.5309 137.026C91.4146 136.896 90.5572 136.532 89.9586 135.933C89.3763 135.35 89.0851 134.54 89.0851 133.504C89.0851 132.953 89.166 132.354 89.3277 131.707C89.5057 131.059 89.7322 130.42 90.0072 129.788C90.2984 129.14 90.63 128.517 91.0021 127.918C91.3904 127.303 91.7948 126.752 92.2154 126.267C92.6522 125.781 93.089 125.368 93.5258 125.028C93.9626 124.688 94.3913 124.469 94.8119 124.372ZM92.3368 136.054C92.903 135.86 93.4692 135.431 94.0354 134.767C94.6016 134.103 95.1112 133.326 95.5642 132.435C96.0172 131.529 96.3811 130.565 96.6562 129.545C96.9474 128.509 97.093 127.513 97.093 126.558C97.093 126.283 97.093 126.113 97.093 126.048C97.093 125.983 97.0849 125.918 97.0687 125.854C96.6804 126.016 96.2679 126.291 95.8311 126.679C95.3943 127.068 94.9575 127.521 94.5207 128.039C94.0839 128.541 93.6714 129.092 93.2831 129.691C92.8949 130.29 92.5471 130.889 92.2397 131.488C91.9323 132.087 91.6897 132.662 91.5117 133.213C91.3337 133.763 91.2448 134.249 91.2448 134.67C91.2448 135.479 91.6088 135.941 92.3368 136.054Z" fill="white"/>
<path d="M108.392 125.902C108.554 125.902 108.74 125.935 108.95 125.999C109.176 126.048 109.379 126.121 109.557 126.218C109.735 126.299 109.88 126.388 109.993 126.485C110.123 126.582 110.188 126.671 110.188 126.752C109.864 127.432 109.565 128.12 109.29 128.817C109.015 129.497 108.78 130.152 108.586 130.784C108.392 131.415 108.238 132.006 108.125 132.557C108.028 133.107 107.979 133.585 107.979 133.99C107.979 134.443 108.028 134.824 108.125 135.131C108.222 135.423 108.384 135.633 108.61 135.763C108.416 135.892 108.165 135.997 107.858 136.078C107.551 136.159 107.276 136.2 107.033 136.2C106.159 136.2 105.722 135.601 105.722 134.403C105.722 133.48 106.03 132.217 106.645 130.614C106.321 131.359 105.949 132.063 105.528 132.727C105.108 133.374 104.679 133.949 104.242 134.451C103.805 134.953 103.361 135.366 102.908 135.69C102.471 135.997 102.066 136.184 101.694 136.248C101.096 136.216 100.61 135.933 100.238 135.398C99.8662 134.848 99.6802 134.152 99.6802 133.31C99.6802 132.403 99.8743 131.448 100.263 130.444C100.651 129.44 101.144 128.509 101.743 127.651C102.358 126.793 103.021 126.08 103.733 125.514C104.444 124.931 105.132 124.623 105.795 124.591C105.957 124.639 106.135 124.736 106.329 124.882C106.539 125.028 106.734 125.198 106.912 125.392C107.106 125.587 107.267 125.789 107.397 125.999C107.526 126.194 107.599 126.364 107.615 126.509C106.968 126.607 106.297 126.922 105.601 127.457C104.922 127.991 104.299 128.639 103.733 129.4C103.183 130.144 102.73 130.946 102.374 131.804C102.018 132.662 101.84 133.463 101.84 134.208C101.84 134.516 101.953 134.71 102.18 134.791C102.649 134.694 103.191 134.297 103.805 133.601C104.42 132.889 105.164 131.796 106.038 130.322C106.2 130.031 106.378 129.707 106.572 129.351C106.782 128.995 106.992 128.622 107.203 128.234C107.413 127.845 107.615 127.457 107.809 127.068C108.02 126.663 108.214 126.275 108.392 125.902Z" fill="white"/>
<path d="M111.35 131.44C111.35 130.517 111.536 129.626 111.908 128.768C112.297 127.894 112.798 127.125 113.413 126.461C114.044 125.781 114.756 125.238 115.548 124.834C116.357 124.413 117.19 124.202 118.048 124.202C118.889 124.202 119.536 124.413 119.989 124.834C120.442 125.255 120.668 125.854 120.668 126.631C120.668 127.003 120.612 127.368 120.499 127.724C120.402 128.064 120.264 128.371 120.086 128.647C119.924 128.922 119.73 129.149 119.504 129.327C119.277 129.489 119.051 129.57 118.824 129.57C118.63 129.57 118.428 129.513 118.218 129.4C118.023 129.27 117.862 129.108 117.732 128.914C118.816 127.926 119.358 127.028 119.358 126.218C119.358 125.748 119.172 125.514 118.8 125.514C118.476 125.514 118.072 125.667 117.587 125.975C117.101 126.283 116.632 126.688 116.179 127.189C115.484 127.967 114.95 128.833 114.578 129.788C114.222 130.727 114.044 131.715 114.044 132.751C114.044 134.063 114.335 134.848 114.917 135.107C115.16 135.074 115.443 135.002 115.767 134.888C116.09 134.775 116.438 134.629 116.81 134.451C117.182 134.257 117.562 134.038 117.951 133.795C118.355 133.553 118.743 133.293 119.115 133.018C119.18 133.067 119.237 133.14 119.285 133.237C119.334 133.334 119.358 133.423 119.358 133.504C119.099 133.828 118.8 134.144 118.46 134.451C118.121 134.759 117.765 135.042 117.393 135.301C117.02 135.56 116.656 135.787 116.301 135.981C115.945 136.175 115.629 136.305 115.354 136.37C115.095 136.742 114.861 137.106 114.65 137.463C114.44 137.819 114.278 138.135 114.165 138.41C114.311 138.329 114.489 138.248 114.699 138.167C114.925 138.102 115.152 138.037 115.378 137.973C115.605 137.908 115.823 137.859 116.034 137.827C116.26 137.795 116.446 137.778 116.592 137.778C116.656 137.778 116.77 137.827 116.931 137.924C117.093 138.037 117.247 138.159 117.393 138.288C117.554 138.418 117.692 138.547 117.805 138.677C117.934 138.807 117.999 138.904 117.999 138.968C117.999 139.082 117.902 139.26 117.708 139.503C117.514 139.746 117.263 140.013 116.956 140.304C116.665 140.596 116.333 140.903 115.961 141.227C115.589 141.551 115.233 141.842 114.893 142.101C114.553 142.36 114.238 142.571 113.947 142.733C113.672 142.911 113.469 143 113.34 143C113.308 143 113.259 142.96 113.194 142.879C113.146 142.814 113.089 142.733 113.025 142.636C112.976 142.539 112.928 142.441 112.879 142.344C112.847 142.247 112.83 142.174 112.83 142.126C113.203 141.818 113.526 141.535 113.801 141.276C114.076 141.017 114.327 140.766 114.553 140.523C114.78 140.28 114.99 140.021 115.184 139.746C115.378 139.47 115.581 139.163 115.791 138.823C115.662 138.855 115.475 138.896 115.233 138.944C114.99 139.009 114.731 139.082 114.456 139.163C114.197 139.26 113.931 139.349 113.656 139.43C113.397 139.527 113.17 139.608 112.976 139.673C112.928 139.64 112.887 139.592 112.855 139.527C112.822 139.478 112.798 139.43 112.782 139.381C112.863 139.106 113.081 138.677 113.437 138.094C113.793 137.511 114.206 136.92 114.675 136.321C114.206 136.208 113.769 135.997 113.364 135.69C112.96 135.382 112.604 135.01 112.297 134.573C112.005 134.135 111.771 133.65 111.593 133.115C111.431 132.581 111.35 132.022 111.35 131.44Z" fill="white"/>
<path d="M124.235 136.564C123.313 136.467 122.577 136.062 122.027 135.35C121.477 134.637 121.202 133.731 121.202 132.63C121.202 131.982 121.299 131.31 121.493 130.614C121.687 129.918 121.962 129.246 122.318 128.598C122.674 127.934 123.094 127.311 123.58 126.728C124.065 126.145 124.591 125.643 125.157 125.222C126.047 124.558 126.88 124.226 127.656 124.226C128.174 124.502 128.684 125.077 129.185 125.951C129.266 125.951 129.339 125.951 129.404 125.951C129.468 125.935 129.541 125.927 129.622 125.927C130.479 125.927 130.908 126.688 130.908 128.209C130.908 129.23 130.738 130.201 130.399 131.124C130.075 132.031 129.614 132.856 129.015 133.601C128.433 134.346 127.729 134.977 126.904 135.495C126.095 135.997 125.206 136.354 124.235 136.564ZM125.472 128.914C125.197 129.286 124.939 129.691 124.696 130.128C124.453 130.565 124.243 131.011 124.065 131.464C123.887 131.901 123.75 132.33 123.652 132.751C123.555 133.156 123.507 133.52 123.507 133.844C123.507 134.233 123.572 134.605 123.701 134.961C123.83 135.317 123.976 135.52 124.138 135.568C124.866 135.406 125.529 135.107 126.128 134.67C126.742 134.216 127.268 133.658 127.705 132.994C128.158 132.33 128.506 131.577 128.748 130.735C129.007 129.893 129.137 128.995 129.137 128.039C129.137 127.618 129.112 127.287 129.064 127.044C129.015 126.801 128.934 126.59 128.821 126.412C128.109 126.623 127.47 126.963 126.904 127.432C126.354 127.902 125.877 128.396 125.472 128.914Z" fill="white"/>
<path d="M143.155 124.372C143.479 124.372 143.851 124.469 144.271 124.664C144.692 124.858 145.064 125.109 145.388 125.417C145.307 124.769 145.202 124.162 145.072 123.595C144.959 123.012 144.781 122.413 144.538 121.798C144.312 121.183 144.004 120.511 143.616 119.782C143.228 119.053 142.743 118.22 142.16 117.281C142.209 117.135 142.314 116.965 142.476 116.771C142.654 116.576 142.848 116.398 143.058 116.236C143.284 116.058 143.511 115.904 143.737 115.775C143.98 115.645 144.207 115.564 144.417 115.532C144.87 116.034 145.299 116.665 145.703 117.426C146.107 118.171 146.463 118.981 146.771 119.855C147.078 120.713 147.313 121.604 147.474 122.526C147.652 123.449 147.741 124.332 147.741 125.174C147.741 126.016 147.644 126.882 147.45 127.772C147.272 128.663 147.013 129.537 146.674 130.395C146.35 131.237 145.97 132.039 145.533 132.8C145.096 133.561 144.619 134.241 144.101 134.84C143.6 135.439 143.074 135.925 142.524 136.297C141.974 136.685 141.424 136.928 140.874 137.026C139.758 136.896 138.9 136.532 138.302 135.933C137.719 135.35 137.428 134.54 137.428 133.504C137.428 132.953 137.509 132.354 137.671 131.707C137.849 131.059 138.075 130.42 138.35 129.788C138.641 129.14 138.973 128.517 139.345 127.918C139.733 127.303 140.138 126.752 140.559 126.267C140.995 125.781 141.432 125.368 141.869 125.028C142.306 124.688 142.734 124.469 143.155 124.372ZM140.68 136.054C141.246 135.86 141.812 135.431 142.379 134.767C142.945 134.103 143.454 133.326 143.907 132.435C144.36 131.529 144.724 130.565 144.999 129.545C145.29 128.509 145.436 127.513 145.436 126.558C145.436 126.283 145.436 126.113 145.436 126.048C145.436 125.983 145.428 125.918 145.412 125.854C145.024 126.016 144.611 126.291 144.174 126.679C143.737 127.068 143.301 127.521 142.864 128.039C142.427 128.541 142.015 129.092 141.626 129.691C141.238 130.29 140.89 130.889 140.583 131.488C140.275 132.087 140.033 132.662 139.855 133.213C139.677 133.763 139.588 134.249 139.588 134.67C139.588 135.479 139.952 135.941 140.68 136.054Z" fill="white"/>
<path d="M156.735 125.902C156.897 125.902 157.083 125.935 157.293 125.999C157.52 126.048 157.722 126.121 157.9 126.218C158.078 126.299 158.223 126.388 158.337 126.485C158.466 126.582 158.531 126.671 158.531 126.752C158.207 127.432 157.908 128.12 157.633 128.817C157.358 129.497 157.123 130.152 156.929 130.784C156.735 131.415 156.581 132.006 156.468 132.557C156.371 133.107 156.322 133.585 156.322 133.99C156.322 134.443 156.371 134.824 156.468 135.131C156.565 135.423 156.727 135.633 156.953 135.763C156.759 135.892 156.508 135.997 156.201 136.078C155.894 136.159 155.619 136.2 155.376 136.2C154.502 136.2 154.066 135.601 154.066 134.403C154.066 133.48 154.373 132.217 154.988 130.614C154.664 131.359 154.292 132.063 153.871 132.727C153.451 133.374 153.022 133.949 152.585 134.451C152.149 134.953 151.704 135.366 151.251 135.69C150.814 135.997 150.409 136.184 150.037 136.248C149.439 136.216 148.954 135.933 148.581 135.398C148.209 134.848 148.023 134.152 148.023 133.31C148.023 132.403 148.217 131.448 148.606 130.444C148.994 129.44 149.487 128.509 150.086 127.651C150.701 126.793 151.364 126.08 152.076 125.514C152.788 124.931 153.475 124.623 154.138 124.591C154.3 124.639 154.478 124.736 154.672 124.882C154.883 125.028 155.077 125.198 155.255 125.392C155.449 125.587 155.611 125.789 155.74 125.999C155.869 126.194 155.942 126.364 155.958 126.509C155.311 126.607 154.64 126.922 153.944 127.457C153.265 127.991 152.642 128.639 152.076 129.4C151.526 130.144 151.073 130.946 150.717 131.804C150.361 132.662 150.183 133.463 150.183 134.208C150.183 134.516 150.296 134.71 150.523 134.791C150.992 134.694 151.534 134.297 152.149 133.601C152.763 132.889 153.507 131.796 154.381 130.322C154.543 130.031 154.721 129.707 154.915 129.351C155.125 128.995 155.336 128.622 155.546 128.234C155.756 127.845 155.958 127.457 156.153 127.068C156.363 126.663 156.557 126.275 156.735 125.902Z" fill="white"/>
<path d="M166.369 134.33C166.369 133.747 166.458 132.994 166.636 132.071C166.83 131.132 167.073 130.128 167.364 129.06C167.671 127.975 168.019 126.874 168.407 125.757C168.795 124.623 169.192 123.563 169.596 122.575C170.001 121.587 170.397 120.721 170.785 119.976C171.174 119.232 171.521 118.697 171.829 118.373C171.991 118.39 172.201 118.454 172.46 118.568C172.735 118.665 173.01 118.786 173.285 118.932C173.56 119.078 173.811 119.24 174.037 119.418C174.264 119.58 174.409 119.733 174.474 119.879C174.005 120.3 173.536 120.94 173.066 121.798C172.613 122.64 172.169 123.603 171.732 124.688C171.311 125.773 170.915 126.922 170.543 128.137C170.171 129.335 169.847 130.501 169.572 131.634C169.297 132.767 169.079 133.82 168.917 134.791C168.771 135.763 168.698 136.548 168.698 137.147C168.698 137.422 168.723 137.592 168.771 137.657C168.415 137.641 168.156 137.576 167.995 137.463C167.833 137.366 167.703 137.252 167.606 137.123C167.526 137.009 167.445 136.888 167.364 136.758C167.299 136.645 167.194 136.556 167.048 136.491C166.935 136.443 166.838 136.329 166.757 136.151C166.676 135.973 166.603 135.779 166.539 135.568C166.49 135.342 166.45 135.115 166.417 134.888C166.385 134.662 166.369 134.475 166.369 134.33Z" fill="white"/>
<path d="M174.085 126.412C174.004 126.315 173.931 126.113 173.866 125.805C173.802 125.481 173.769 125.206 173.769 124.979C174.19 125.012 174.594 125.044 174.983 125.077C175.371 125.093 175.727 125.109 176.05 125.125C176.293 124.639 176.552 124.162 176.827 123.692C177.118 123.206 177.393 122.769 177.652 122.381C177.927 121.976 178.178 121.636 178.404 121.361C178.647 121.085 178.833 120.907 178.962 120.826C179.124 120.826 179.326 120.859 179.569 120.924C179.828 120.972 180.087 121.045 180.346 121.142C180.604 121.223 180.839 121.312 181.049 121.409C181.26 121.506 181.405 121.604 181.486 121.701C181.001 122.316 180.58 122.891 180.224 123.425C179.884 123.943 179.512 124.542 179.108 125.222C179.431 125.222 179.755 125.214 180.079 125.198C180.418 125.182 180.758 125.157 181.098 125.125C181.179 125.206 181.243 125.311 181.292 125.441C181.34 125.554 181.365 125.676 181.365 125.805C180.572 126.097 179.609 126.258 178.477 126.291C178.073 127.068 177.709 127.845 177.385 128.622C177.078 129.383 176.811 130.12 176.584 130.832C176.374 131.545 176.204 132.217 176.075 132.848C175.961 133.48 175.905 134.046 175.905 134.548C175.905 135.261 176.172 135.657 176.706 135.738C177.191 135.674 177.652 135.552 178.089 135.374C178.526 135.196 178.914 134.969 179.254 134.694C179.351 134.84 179.407 134.961 179.423 135.058C179.326 135.204 179.156 135.374 178.914 135.568C178.687 135.763 178.437 135.949 178.162 136.127C177.887 136.321 177.62 136.483 177.361 136.613C177.102 136.742 176.908 136.815 176.778 136.831C176.374 136.815 175.969 136.726 175.565 136.564C175.161 136.402 174.789 136.2 174.449 135.957C174.125 135.714 173.858 135.447 173.648 135.155C173.438 134.848 173.333 134.548 173.333 134.257C173.333 133.868 173.381 133.383 173.478 132.8C173.591 132.201 173.745 131.553 173.939 130.857C174.133 130.161 174.36 129.432 174.619 128.671C174.877 127.91 175.161 127.157 175.468 126.412H174.085Z" fill="white"/>
<path d="M189.556 125.902C189.718 125.902 189.904 125.935 190.114 125.999C190.341 126.048 190.543 126.121 190.721 126.218C190.899 126.299 191.044 126.388 191.158 126.485C191.287 126.582 191.352 126.671 191.352 126.752C191.028 127.432 190.729 128.12 190.454 128.817C190.179 129.497 189.944 130.152 189.75 130.784C189.556 131.415 189.402 132.006 189.289 132.557C189.192 133.107 189.144 133.585 189.144 133.99C189.144 134.443 189.192 134.824 189.289 135.131C189.386 135.423 189.548 135.633 189.774 135.763C189.58 135.892 189.33 135.997 189.022 136.078C188.715 136.159 188.44 136.2 188.197 136.2C187.324 136.2 186.887 135.601 186.887 134.403C186.887 133.48 187.194 132.217 187.809 130.614C187.485 131.359 187.113 132.063 186.693 132.727C186.272 133.374 185.843 133.949 185.407 134.451C184.97 134.953 184.525 135.366 184.072 135.69C183.635 135.997 183.231 136.184 182.859 136.248C182.26 136.216 181.775 135.933 181.403 135.398C181.031 134.848 180.844 134.152 180.844 133.31C180.844 132.403 181.039 131.448 181.427 130.444C181.815 129.44 182.309 128.509 182.907 127.651C183.522 126.793 184.185 126.08 184.897 125.514C185.609 124.931 186.296 124.623 186.96 124.591C187.121 124.639 187.299 124.736 187.493 124.882C187.704 125.028 187.898 125.198 188.076 125.392C188.27 125.587 188.432 125.789 188.561 125.999C188.691 126.194 188.763 126.364 188.78 126.509C188.132 126.607 187.461 126.922 186.765 127.457C186.086 127.991 185.463 128.639 184.897 129.4C184.347 130.144 183.894 130.946 183.538 131.804C183.182 132.662 183.004 133.463 183.004 134.208C183.004 134.516 183.117 134.71 183.344 134.791C183.813 134.694 184.355 134.297 184.97 133.601C185.585 132.889 186.329 131.796 187.202 130.322C187.364 130.031 187.542 129.707 187.736 129.351C187.946 128.995 188.157 128.622 188.367 128.234C188.577 127.845 188.78 127.457 188.974 127.068C189.184 126.663 189.378 126.275 189.556 125.902ZM192.371 118.009C192.533 118.106 192.695 118.268 192.856 118.495C193.034 118.705 193.188 118.948 193.317 119.223C193.463 119.483 193.576 119.75 193.657 120.025C193.738 120.3 193.778 120.551 193.778 120.778C193.164 121.199 192.622 121.547 192.153 121.822C191.7 122.097 191.287 122.324 190.915 122.502C190.559 122.664 190.244 122.785 189.969 122.866C189.694 122.931 189.427 122.964 189.168 122.964C188.65 122.964 188.205 122.81 187.833 122.502C188.189 122.373 188.561 122.17 188.949 121.895C189.338 121.62 189.726 121.288 190.114 120.899C190.519 120.511 190.907 120.073 191.279 119.588C191.667 119.102 192.031 118.576 192.371 118.009Z" fill="white"/>
<path d="M192.559 134.16C192.559 133.447 192.728 132.452 193.068 131.172C193.408 129.877 193.885 128.371 194.5 126.655C195.503 123.919 196.441 121.644 197.315 119.831C198.204 118.001 199.07 116.576 199.911 115.556C200.105 115.589 200.34 115.67 200.615 115.799C200.906 115.929 201.189 116.074 201.464 116.236C201.739 116.382 201.982 116.536 202.192 116.698C202.419 116.86 202.564 116.989 202.629 117.086C201.367 118.576 200.259 120.179 199.305 121.895C198.35 123.611 197.476 125.578 196.684 127.797C196.004 129.707 195.487 131.432 195.131 132.97C194.775 134.492 194.597 135.763 194.597 136.783C194.597 137.058 194.597 137.228 194.597 137.293C194.597 137.357 194.605 137.422 194.621 137.487C194.395 137.455 194.201 137.398 194.039 137.317C193.877 137.236 193.772 137.139 193.723 137.026C193.691 136.945 193.602 136.823 193.456 136.661C193.311 136.515 193.181 136.402 193.068 136.321C192.922 136.224 192.801 135.973 192.704 135.568C192.607 135.147 192.559 134.678 192.559 134.16Z" fill="white"/>
<path d="M198.342 134.087C198.342 133.941 198.35 133.763 198.366 133.553C198.398 133.326 198.447 133.034 198.512 132.678C198.576 132.306 198.657 131.861 198.754 131.342C198.868 130.824 199.005 130.201 199.167 129.472C199.199 129.31 199.272 129.051 199.385 128.695C199.499 128.339 199.644 127.967 199.822 127.578C200.016 127.173 200.243 126.785 200.502 126.412C200.777 126.04 201.1 125.765 201.472 125.587C201.747 125.651 202.111 125.821 202.564 126.097C203.017 126.356 203.405 126.72 203.729 127.189C203.357 127.61 203.041 128.031 202.783 128.452C202.54 128.873 202.313 129.31 202.103 129.764C201.909 130.217 201.723 130.687 201.545 131.172C201.383 131.658 201.197 132.168 200.987 132.702C200.809 133.156 200.647 133.625 200.502 134.111C200.356 134.581 200.275 134.994 200.259 135.35C200.259 135.641 200.251 135.844 200.235 135.957C200.235 136.086 200.194 136.151 200.113 136.151C200.049 136.151 199.919 136.111 199.725 136.03C199.531 135.949 199.329 135.827 199.118 135.665C198.924 135.487 198.746 135.269 198.585 135.01C198.423 134.751 198.342 134.443 198.342 134.087ZM202.977 123.546C202.977 123.449 203.001 123.304 203.05 123.109C202.969 123.028 202.896 122.907 202.831 122.745C202.783 122.583 202.758 122.437 202.758 122.308C202.758 122.162 202.774 121.968 202.807 121.725C202.855 121.466 202.912 121.191 202.977 120.899C203.041 120.608 203.122 120.308 203.219 120.001C203.316 119.677 203.413 119.385 203.511 119.126C203.705 119.126 203.939 119.183 204.214 119.296C204.506 119.393 204.797 119.531 205.088 119.709C205.379 119.871 205.646 120.057 205.889 120.268C206.131 120.462 206.317 120.648 206.447 120.826C206.269 121.004 206.034 121.255 205.743 121.579C205.452 121.887 205.169 122.219 204.894 122.575C204.619 122.915 204.368 123.239 204.141 123.546C203.915 123.854 203.769 124.073 203.705 124.202C203.511 124.17 203.341 124.089 203.195 123.959C203.049 123.814 202.977 123.676 202.977 123.546Z" fill="white"/>
<path d="M212.424 125.902C212.586 125.902 212.772 125.935 212.982 125.999C213.209 126.048 213.411 126.121 213.589 126.218C213.767 126.299 213.913 126.388 214.026 126.485C214.155 126.582 214.22 126.671 214.22 126.752C213.896 127.432 213.597 128.12 213.322 128.817C213.047 129.497 212.813 130.152 212.618 130.784C212.424 131.415 212.271 132.006 212.157 132.557C212.06 133.107 212.012 133.585 212.012 133.99C212.012 134.443 212.06 134.824 212.157 135.131C212.254 135.423 212.416 135.633 212.643 135.763C212.449 135.892 212.198 135.997 211.89 136.078C211.583 136.159 211.308 136.2 211.065 136.2C210.192 136.2 209.755 135.601 209.755 134.403C209.755 133.48 210.062 132.217 210.677 130.614C210.354 131.359 209.981 132.063 209.561 132.727C209.14 133.374 208.712 133.949 208.275 134.451C207.838 134.953 207.393 135.366 206.94 135.69C206.503 135.997 206.099 136.184 205.727 136.248C205.128 136.216 204.643 135.933 204.271 135.398C203.899 134.848 203.713 134.152 203.713 133.31C203.713 132.403 203.907 131.448 204.295 130.444C204.683 129.44 205.177 128.509 205.775 127.651C206.39 126.793 207.053 126.08 207.765 125.514C208.477 124.931 209.165 124.623 209.828 124.591C209.99 124.639 210.168 124.736 210.362 124.882C210.572 125.028 210.766 125.198 210.944 125.392C211.138 125.587 211.3 125.789 211.429 125.999C211.559 126.194 211.632 126.364 211.648 126.509C211.001 126.607 210.329 126.922 209.634 127.457C208.954 127.991 208.331 128.639 207.765 129.4C207.215 130.144 206.762 130.946 206.406 131.804C206.05 132.662 205.872 133.463 205.872 134.208C205.872 134.516 205.986 134.71 206.212 134.791C206.681 134.694 207.223 134.297 207.838 133.601C208.453 132.889 209.197 131.796 210.07 130.322C210.232 130.031 210.41 129.707 210.604 129.351C210.815 128.995 211.025 128.622 211.235 128.234C211.446 127.845 211.648 127.457 211.842 127.068C212.052 126.663 212.246 126.275 212.424 125.902Z" fill="white"/>
<path d="M13.4289 23.2086C13.9898 24.1742 14.2703 25.1061 14.2703 26.0044C14.2703 26.2065 14.2479 26.3861 14.203 26.5433C14.1806 26.723 14.1469 26.9026 14.102 27.0823C13.7206 27.0374 13.3167 27.0037 12.8904 26.9812C12.4865 26.9588 12.0602 26.9475 11.6114 26.9475C11.0729 26.9475 10.5232 26.9588 9.96229 26.9812C9.42378 27.0261 8.81797 27.0823 8.14484 27.1496C7.47171 27.217 6.72006 27.3068 5.88987 27.4191C5.05967 27.5314 4.09486 27.6774 2.99542 27.857C2.47935 27.6774 1.96329 27.3181 1.44722 26.7791C0.93116 26.2626 0.448752 25.6338 0 24.8928C0.224376 24.3987 0.504846 23.7924 0.841409 23.0738C1.17797 22.3328 1.57063 21.4457 2.01938 20.4128C2.46813 19.3573 2.96176 18.1334 3.50026 16.7412C4.0612 15.3264 4.6558 13.6983 5.28405 11.8569C5.68793 10.6443 6.03571 9.57761 6.3274 8.6569C6.61909 7.73619 6.87712 6.84917 7.1015 5.99583C7.34831 5.12003 7.5839 4.21055 7.80828 3.26739C8.03265 2.32423 8.27947 1.2351 8.54872 0C9.44622 0.179651 10.2203 0.516495 10.871 1.01053C11.5441 1.48211 12.1836 2.16703 12.7894 3.06528C12.6099 3.35721 12.3743 3.8288 12.0826 4.48003C11.7909 5.13126 11.4432 5.92846 11.0393 6.87162C10.6579 7.79233 10.2315 8.84778 9.76035 10.038C9.28916 11.2057 8.79553 12.4632 8.27947 13.8106C7.78584 15.1355 7.30343 16.3819 6.83224 17.5496C6.36105 18.7173 5.93474 19.7728 5.5533 20.7159C5.1943 21.6591 4.90261 22.4675 4.67824 23.1412C4.45386 23.8149 4.34167 24.3202 4.34167 24.657C4.70067 24.6345 5.02602 24.6121 5.31771 24.5896C5.6094 24.5672 5.9123 24.5335 6.22643 24.4886C6.54056 24.4212 6.87712 24.3538 7.23612 24.2865C7.61756 24.1966 8.06631 24.0844 8.58238 23.9496C9.03113 23.8373 9.44622 23.7475 9.82766 23.6801C10.2091 23.5903 10.5793 23.523 10.9383 23.478C11.3198 23.4107 11.7012 23.3658 12.0826 23.3433C12.4865 23.2984 12.9353 23.2535 13.4289 23.2086Z" fill="white"/>
<path d="M28.1291 11.5201C28.3535 11.5201 28.6115 11.565 28.9032 11.6548C29.2173 11.7222 29.4978 11.8232 29.7446 11.958C29.9914 12.0703 30.1934 12.1938 30.3504 12.3285C30.5299 12.4632 30.6197 12.5867 30.6197 12.699C30.1709 13.6422 29.7558 14.5966 29.3744 15.5622C28.9929 16.5054 28.6676 17.4148 28.3984 18.2906C28.1291 19.1664 27.9159 19.9861 27.7589 20.7496C27.6243 21.5131 27.5569 22.1756 27.5569 22.737C27.5569 23.3658 27.6243 23.8935 27.7589 24.3202C27.8935 24.7244 28.1179 25.0163 28.432 25.1959C28.1628 25.3756 27.815 25.5216 27.3887 25.6338C26.9623 25.7461 26.5809 25.8023 26.2443 25.8023C25.0327 25.8023 24.4269 24.9714 24.4269 23.3096C24.4269 22.0296 24.8532 20.278 25.7058 18.0549C25.2571 19.0878 24.741 20.0647 24.1576 20.9854C23.5743 21.8836 22.9797 22.6808 22.3739 23.377C21.768 24.0731 21.151 24.6458 20.5228 25.0949C19.9169 25.5216 19.356 25.7798 18.8399 25.8696C18.0098 25.8247 17.3366 25.4317 16.8206 24.6907C16.3045 23.9272 16.0465 22.9615 16.0465 21.7938C16.0465 20.5363 16.3157 19.2113 16.8542 17.8191C17.3927 16.4268 18.0771 15.1355 18.9073 13.9454C19.7599 12.7552 20.6798 11.7671 21.6671 10.9811C22.6543 10.1727 23.6079 9.74603 24.5279 9.70111C24.7522 9.76848 24.9991 9.90322 25.2683 10.1053C25.56 10.3074 25.8293 10.5432 26.0761 10.8127C26.3453 11.0822 26.5697 11.3629 26.7492 11.6548C26.9287 11.9243 27.0297 12.1601 27.0521 12.3622C26.1546 12.4969 25.2234 12.9348 24.2586 13.6759C23.3162 14.4169 22.4524 15.3152 21.6671 16.3706C20.9042 17.4036 20.2759 18.5152 19.7823 19.7054C19.2887 20.8956 19.0419 22.0072 19.0419 23.0401C19.0419 23.4668 19.1989 23.7363 19.5131 23.8486C20.1638 23.7138 20.9154 23.1637 21.768 22.198C22.6207 21.21 23.6528 19.6942 24.8644 17.6506C25.0888 17.2464 25.3356 16.7973 25.6049 16.3033C25.8966 15.8092 26.1883 15.2927 26.4799 14.7538C26.7716 14.2148 27.0521 13.6759 27.3213 13.1369C27.613 12.5755 27.8823 12.0366 28.1291 11.5201Z" fill="white"/>
</svg>
